<svg
  width="8"
  height="10"
  viewBox="0 0 8 10"
  fill="none"
  xmlns="http://www.w3.org/2000/svg"
>
  <path
    d="M4.36872 8.81893C4.28492 8.93416 4.15084 9 4 9C3.84916 9 3.71508 8.93416 3.63128 8.81893C2.82682 7.76543 1 5.23045 1 3.9465C1 2.31687 2.34078 1 4 1C5.65922 1 7 2.31687 7 3.9465C7 5.21399 5.17318 7.76543 4.36872 8.81893Z"
    stroke="black"
    stroke-opacity="54%"
    stroke-width="0.8"
  />
  <path
    d="M5 4C5 3.44186 4.55814 3 4 3C3.44186 3 3 3.44186 3 4C3 4.55814 3.44186 5 4 5C4.55814 5 5 4.55814 5 4Z"
    fill="black"
    fill-opacity="50%"
  />
</svg>